<svg width="21" height="20" viewBox="0 0 21 20" fill="none" xmlns="http://www.w3.org/2000/svg">
<path d="M10.5 0L6.741 5.85263L0 7.62105L4.41 13.0316L4.011 20L10.5 17.4632L16.989 20L16.59 13.0316L21 7.62105L14.259 5.85263L10.5 0ZM7.749 8.42105C8.4 8.42105 8.925 8.94737 8.925 9.61053C8.925 9.76535 8.89458 9.91865 8.83548 10.0617C8.77638 10.2047 8.68976 10.3347 8.58056 10.4442C8.47136 10.5536 8.34171 10.6405 8.19904 10.6997C8.05636 10.759 7.90343 10.7895 7.749 10.7895C7.0875 10.7895 6.5625 10.2632 6.5625 9.61053C6.5625 8.94737 7.0875 8.42105 7.749 8.42105ZM13.2615 8.42105C13.9125 8.42105 14.4375 8.94737 14.4375 9.61053C14.4375 9.9232 14.3136 10.2231 14.0931 10.4442C13.8725 10.6653 13.5734 10.7895 13.2615 10.7895C12.6 10.7895 12.075 10.2632 12.075 9.61053C12.075 8.94737 12.6 8.42105 13.2615 8.42105ZM7.35 13.1579H13.65C13.3913 13.7817 12.954 14.3148 12.3934 14.6898C11.8328 15.0647 11.1739 15.2648 10.5 15.2648C9.82607 15.2648 9.16723 15.0647 8.60662 14.6898C8.04601 14.3148 7.60875 13.7817 7.35 13.1579Z" fill="white"/>
</svg>
